<svg width="106" height="49" fill="none" xmlns="http://www.w3.org/2000/svg"><path d="M36.307 13.5c2.34 0 4.446.092 6.377.279 1.92.185 3.556.491 4.94.914 1.362.423 2.427.984 3.194 1.69.743.696 1.112 1.567 1.112 2.596 0 1.115-.556 2.047-1.673 2.79-1.124.745-2.78 1.355-4.99 1.827 3.008.393 5.237 1.083 6.715 2.061 1.486.988 2.213 2.17 2.213 3.556 0 1.124-.473 2.09-1.422 2.902-.916.8-2.243 1.487-3.87 2.004-1.686.532-3.569.922-5.56 1.152a53.93 53.93 0 0 1-6.392.37H13.25V13.5h23.057Zm-1.395 8.946c1.908 0 3.489-.205 4.737-.62 1.24-.411 1.84-1.088 1.84-2.014 0-.515-.203-.94-.6-1.272-.388-.32-.96-.587-1.658-.77a12.7 12.7 0 0 0-2.372-.387 31.334 31.334 0 0 0-2.769-.11H24.018v5.173h10.895Zm.6 9.426c1.061 0 2.07-.041 3.02-.139.958-.093 1.808-.244 2.531-.47.723-.215 1.32-.508 1.748-.883.434-.37.644-.854.644-1.435 0-1.141-.711-1.953-2.118-2.444-1.41-.486-3.302-.727-5.618-.727H24.018v6.1h11.494v-.002Zm34.032-.074c1.458.644 3.56.968 6.294.968 1.958 0 3.651-.225 5.077-.67 1.407-.449 2.265-.927 2.595-1.422h8.563c-1.375 1.928-3.461 3.307-6.314 4.136-2.817.833-6.246 1.247-10.251 1.247-2.79 0-5.3-.203-7.55-.606-2.158-.381-4.109-.97-5.717-1.724-1.582-.773-2.805-1.681-3.596-2.672-.87-1.095-1.3-2.253-1.271-3.417 0-1.198.44-2.319 1.307-3.353.822-1 2.085-1.914 3.71-2.687 1.61-.755 3.517-1.35 5.738-1.788a38.573 38.573 0 0 1 7.383-.651c2.996 0 5.614.262 7.863.791 2.18.505 4.072 1.233 5.523 2.127 1.442.887 2.471 1.903 3.11 3.042.64 1.138.863 2.325.68 3.568H67.136c.004 1.267.946 2.467 2.408 3.111Zm11.173-8.422c-1.156-.58-3.111-.892-5.503-.892-1.554 0-2.837.116-3.87.358-.945.216-1.783.516-2.464.883-.598.333-1.041.717-1.303 1.13-.23.344-.377.698-.441 1.056h15.822c-.23-1.123-1.081-1.952-2.241-2.535Zm-15.568-8.39h19.823v2.186H65.15v-2.186Z" fill="#E3E4E6" fill-opacity=".55"/></svg>