<svg width="106" height="49" fill="none" xmlns="http://www.w3.org/2000/svg"><path d="M83.917 24.5c.005 1.844-.797 3.67-2.36 5.373-1.562 1.703-3.854 3.249-6.744 4.548-2.866 1.296-6.267 2.323-10.01 3.023-3.743.7-7.754 1.058-11.803 1.056-17.075 0-30.917-6.268-30.917-14-.01-3.59 3.035-7.043 8.502-9.643 2.885-1.378 6.361-2.476 10.215-3.225 3.855-.75 8.006-1.134 12.2-1.132 4.05-.002 8.06.357 11.803 1.056 3.743.7 7.144 1.727 10.01 3.023m9.104 9.921c.005-1.844-.797-3.67-2.36-5.373-1.562-1.703-3.854-3.249-6.744-4.548m9.104 9.921c-4.511 0-16.955-.77-28.093 1.444-12.099 2.406-20.86 6.138-24.677 8.459m52.77-9.903c0 1.724-.689 3.375-1.948 4.9m-7.156-14.821c-2.722-1.228-5.926-2.217-9.447-2.914m-23.96-.147C46.245 13.54 56.803 18.689 60.73 23.8c3.927 5.112 5.38 11.396 6.276 13.185M22.322 22.75c5.84.16 21.3.303 31.193-1.61s18.406-5.432 21.326-6.548m-50.44 15.237c2.725 2.986 7.638 5.456 13.913 6.994" stroke="#E3E4E6" stroke-opacity=".55" stroke-width="2.8" stroke-linecap="round" stroke-linejoin="round"/></svg>