<svg width="106" height="49" fill="none" xmlns="http://www.w3.org/2000/svg"><path fill-rule="evenodd" clip-rule="evenodd" d="M45.051 20.281h11.483v2.331c1.654-1.34 5.895-2.545 12.267-2.545 12.215 0 15.115 2.669 15.115 7.565V36.7H71.55v-7.953c0-2.788-1.654-4.36-5.865-4.36-5.84 0-8.267 1.694-8.267 4.359V36.7H45.05V20.281ZM23.845 36.486h12.367v-16.42H23.845v16.42ZM37.984 14.713c0 .422-.205.84-.605 1.23s-.985.744-1.723 1.04c-1.495.606-3.52.945-5.627.943-2.104 0-4.123-.339-5.62-.941-.736-.298-1.32-.652-1.719-1.042s-.605-.808-.607-1.23c0-.853.835-1.67 2.328-2.272 1.496-.603 3.516-.941 5.621-.941 2.109 0 4.13.339 5.624.941 1.49.602 2.328 1.419 2.328 2.272Z" fill="#E3E4E6" fill-opacity=".55"/></svg>