<svg width="106" height="49" fill="none" xmlns="http://www.w3.org/2000/svg"><path d="M83.917 19.951V31.35c0 1.162-.982 2.28-2.745 3.125-1.762.845-4.172 1.352-6.734 1.418l-.57.007H32.132c-2.566 0-5.035-.445-6.901-1.243-1.866-.798-2.986-1.89-3.131-3.05l-.016-.257V19.951l29.841 7.079c.332.078.701.12 1.076.12.375 0 .744-.042 1.076-.12l29.84-7.079Z" fill="#E3E4E6" fill-opacity=".55"/><path d="M32.131 13.5h41.737c2.491 0 4.893.419 6.74 1.175 1.848.756 3.01 1.796 3.259 2.919L53 24.916l-30.867-7.322c.24-1.078 1.32-2.082 3.047-2.83 1.727-.75 3.988-1.195 6.376-1.257l.575-.007h41.737-41.737Z" fill="#E3E4E6" fill-opacity=".55"/></svg>