<svg width="106" height="49" viewBox="0 0 106 49" fill="none" xmlns="http://www.w3.org/2000/svg">
<path d="M36.3071 13.5C38.6474 13.5 40.7532 13.5918 42.6843 13.7789C44.6034 13.9642 46.2404 14.2701 47.6231 14.6929C48.9859 15.1157 50.0508 15.6771 50.8176 16.3824C51.5606 17.0787 51.9301 17.9495 51.9301 18.9787C51.9301 20.0942 51.3739 21.0262 50.2574 21.7693C49.1329 22.5142 47.4761 23.1241 45.2669 23.5955C48.2747 23.9895 50.5037 24.6786 51.9818 25.6574C53.4678 26.6452 54.1949 27.8273 54.1949 29.2127C54.1949 30.3372 53.7221 31.3034 52.7725 32.1149C51.8574 32.9142 50.5298 33.6018 48.9025 34.1192C47.2169 34.6507 45.3341 35.0408 43.3438 35.2707C41.2571 35.5188 39.1082 35.6433 36.9508 35.6414H13.25V13.5H36.3071ZM34.9125 22.4458C36.8197 22.4458 38.401 22.2407 39.6486 21.8251C40.8883 21.4148 41.4883 20.7383 41.4883 19.8117C41.4883 19.2971 41.2857 18.8725 40.8883 18.5397C40.5012 18.2194 39.9283 17.9532 39.2315 17.7696C38.5021 17.5737 37.6971 17.4424 36.8594 17.3827C35.9463 17.3056 35.0188 17.2689 34.09 17.273H24.0177V22.4458H34.9125V22.4458ZM35.5124 31.872C36.5733 31.872 37.5825 31.8306 38.5321 31.7334C39.4897 31.6399 40.34 31.4887 41.0631 31.2638C41.7863 31.0479 42.3823 30.7546 42.8114 30.3804C43.2445 30.0098 43.4551 29.5258 43.4551 28.9446C43.4551 27.8039 42.7439 26.9924 41.3373 26.5013C39.9268 26.0155 38.0355 25.7744 35.719 25.7744H24.0177V31.8738H35.5124V31.872ZM69.5438 31.7982C71.002 32.4423 73.1039 32.7662 75.8375 32.7662C77.7964 32.7662 79.489 32.5413 80.9154 32.0951C82.322 31.6471 83.1802 31.1685 83.51 30.6737H92.0725C90.6977 32.6025 88.6117 33.9807 85.7589 34.8101C82.9418 35.6432 79.5128 36.057 75.5077 36.057C72.7185 36.057 70.2074 35.8537 67.9585 35.4506C65.7999 35.07 63.8492 34.4819 62.2409 33.727C60.6591 32.9544 59.4362 32.0458 58.645 31.0551C57.7753 29.9596 57.3447 28.8025 57.3736 27.6384C57.3736 26.4401 57.8146 25.3192 58.6808 24.2846C59.503 23.2846 60.7656 22.3706 62.3919 21.5983C64.001 20.8427 65.9082 20.2471 68.1293 19.8099C70.4649 19.3651 72.9782 19.1434 75.5117 19.1586C78.5076 19.1586 81.126 19.4213 83.3749 19.9502C85.5558 20.4552 87.4467 21.1834 88.8978 22.0769C90.3401 22.964 91.3692 23.9805 92.0089 25.1194C92.6486 26.2566 92.8711 27.4441 92.6883 28.6873H67.136C67.14 29.954 68.0816 31.1541 69.5438 31.7982V31.7982ZM80.7167 23.376C79.5605 22.7966 77.6056 22.4836 75.2137 22.4836C73.6602 22.4836 72.3768 22.6005 71.3437 22.8416C70.3991 23.0577 69.5611 23.3582 68.8803 23.725C68.2823 24.0581 67.839 24.4424 67.577 24.855C67.3478 25.1989 67.2 25.553 67.136 25.9111H82.9577C82.7272 24.7884 81.877 23.9589 80.7167 23.376V23.376ZM65.1493 14.9862H84.9722V17.1722H65.1493V14.9862Z" fill="#E3E4E6" fill-opacity="0.55"/>
</svg>
