<svg width="106" height="49" viewBox="0 0 106 49" fill="none" xmlns="http://www.w3.org/2000/svg">
<path d="M83.9166 24.5C83.9218 26.344 83.12 28.1702 81.5575 29.8731C79.9949 31.576 77.7027 33.1217 74.8132 34.4211C71.9473 35.7166 68.5457 36.7436 64.8029 37.4435C61.0601 38.1433 57.0493 38.5024 52.9999 38.5C35.9247 38.5 22.0833 32.2322 22.0833 24.5C22.0725 20.9102 25.1176 17.4567 30.5854 14.8575C33.4704 13.4789 36.9463 12.3814 40.8004 11.6322C44.6545 10.8829 48.8057 10.4977 52.9999 10.5C57.0493 10.4976 61.0601 10.8566 64.8029 11.5565C68.5457 12.2564 71.9473 13.2834 74.8132 14.5789M83.9166 24.5C83.9218 22.656 83.12 20.8298 81.5575 19.1269C79.9949 17.424 77.7027 15.8783 74.8132 14.5789M83.9166 24.5C79.4058 24.5 66.962 23.7299 55.8243 25.944C43.725 28.3499 34.9648 32.0816 31.1466 34.4028M83.9166 24.5C83.9166 26.2241 83.2285 27.8746 81.9687 29.3999M74.8132 14.5789C72.0908 13.3506 68.8873 12.3623 65.3664 11.6647M41.4062 11.518C46.2446 13.5403 56.8027 18.6895 60.7291 23.8002C64.6555 28.9116 66.1086 35.1962 67.0052 36.9847M22.3215 22.7501C28.1617 22.9097 43.6216 23.0532 53.5149 21.1401C63.4082 19.227 71.9211 15.7081 74.8412 14.5916M24.4019 29.8291C27.1262 32.8152 32.0394 35.285 38.3144 36.8228" stroke="#E3E4E6" stroke-opacity="0.55" stroke-width="2.8" stroke-linecap="round" stroke-linejoin="round"/>
</svg>
