<svg width="106" height="49" viewBox="0 0 106 49" fill="none" xmlns="http://www.w3.org/2000/svg">
<path fill-rule="evenodd" clip-rule="evenodd" d="M45.0511 20.2811H56.5336V22.6121C58.1876 21.2715 62.4294 20.0669 68.8013 20.0669C81.0165 20.0669 83.9165 22.7356 83.9165 27.6319V36.7002H71.5498V28.747C71.5498 25.9587 69.8958 24.3862 65.6849 24.3862C59.8448 24.3862 57.4178 26.0809 57.4178 28.7458V36.7002H45.0511V20.2811V20.2811Z" fill="#E3E4E6" fill-opacity="0.55"/>
<path fill-rule="evenodd" clip-rule="evenodd" d="M23.8454 36.486H36.2121V20.0669H23.8454V36.486V36.486Z" fill="#E3E4E6" fill-opacity="0.55"/>
<path fill-rule="evenodd" clip-rule="evenodd" d="M37.9838 14.713C37.9842 15.1354 37.7787 15.5537 37.379 15.9435C36.9793 16.3333 36.3936 16.6868 35.6557 16.9835C34.1606 17.5891 32.1368 17.9281 30.0289 17.926C27.9247 17.9254 25.9056 17.5873 24.4083 16.9848C23.6731 16.6871 23.0893 16.3331 22.6904 15.9433C22.2914 15.5535 22.0851 15.1354 22.0833 14.713C22.0833 13.86 22.9181 13.0435 24.4114 12.4412C25.9074 11.8379 27.9273 11.4996 30.032 11.5C32.1405 11.5 34.1625 11.8389 35.6557 12.4412C37.1459 13.0435 37.9838 13.86 37.9838 14.713Z" fill="#E3E4E6" fill-opacity="0.55"/>
</svg>
