<svg width="106" height="49" viewBox="0 0 106 49" fill="none" xmlns="http://www.w3.org/2000/svg">
<path d="M83.9167 19.9512V31.35C83.9168 32.5122 82.9349 33.6303 81.1723 34.4751C79.4097 35.3199 77 35.8272 74.4376 35.893L73.8688 35.9H32.1313C29.5648 35.9 27.0955 35.4554 25.2299 34.6572C23.3644 33.8591 22.2441 32.7679 22.0988 31.6076L22.0833 31.35V19.9512L51.9241 27.0296C52.2561 27.1083 52.6253 27.1494 53 27.1494C53.3748 27.1494 53.7439 27.1083 54.0759 27.0296L83.9167 19.9512Z" fill="#E3E4E6" fill-opacity="0.55"/>
<path d="M32.131 13.5H73.8685C76.3591 13.4999 78.7611 13.9186 80.6085 14.675C82.4559 15.4314 83.6172 16.4715 83.867 17.5936L52.9998 24.9156L22.1326 17.5936C22.3723 16.516 23.4529 15.5125 25.1802 14.7634C26.9075 14.0144 29.1682 13.5689 31.556 13.507L32.131 13.5H73.8685H32.131Z" fill="#E3E4E6" fill-opacity="0.55"/>
</svg>
